<?xml version="1.0" standalone="no"?><svg xmlns="http://www.w3.org/2000/svg" viewBox="0 0 1440 320"><path fill="#caddd7" fill-opacity="1" d="M0,160L34.3,165.3C68.6,171,137,181,206,197.3C274.3,213,343,235,411,245.3C480,256,549,256,617,224C685.7,192,754,128,823,122.7C891.4,117,960,171,1029,186.7C1097.1,203,1166,181,1234,176C1302.9,171,1371,181,1406,186.7L1440,192L1440,320L1405.7,320C1371.4,320,1303,320,1234,320C1165.7,320,1097,320,1029,320C960,320,891,320,823,320C754.3,320,686,320,617,320C548.6,320,480,320,411,320C342.9,320,274,320,206,320C137.1,320,69,320,34,320L0,320Z"></path></svg>