<?xml version="1.0" standalone="no"?><svg xmlns="http://www.w3.org/2000/svg" viewBox="0 0 1440 320"><path fill="#fff" fill-opacity="1" d="M0,64L34.3,106.7C68.6,149,137,235,206,229.3C274.3,224,343,128,411,101.3C480,75,549,117,617,138.7C685.7,160,754,160,823,144C891.4,128,960,96,1029,96C1097.1,96,1166,128,1234,117.3C1302.9,107,1371,53,1406,26.7L1440,0L1440,320L1405.7,320C1371.4,320,1303,320,1234,320C1165.7,320,1097,320,1029,320C960,320,891,320,823,320C754.3,320,686,320,617,320C548.6,320,480,320,411,320C342.9,320,274,320,206,320C137.1,320,69,320,34,320L0,320Z"></path></svg>