<?xml version="1.0" standalone="no"?><svg xmlns="http://www.w3.org/2000/svg" viewBox="0 0 1440 320"><path fill="#ffff" fill-opacity="1" d="M0,32L30,80C60,128,120,224,180,261.3C240,299,300,277,360,272C420,267,480,277,540,250.7C600,224,660,160,720,149.3C780,139,840,181,900,176C960,171,1020,117,1080,101.3C1140,85,1200,107,1260,106.7C1320,107,1380,85,1410,74.7L1440,64L1440,320L1410,320C1380,320,1320,320,1260,320C1200,320,1140,320,1080,320C1020,320,960,320,900,320C840,320,780,320,720,320C660,320,600,320,540,320C480,320,420,320,360,320C300,320,240,320,180,320C120,320,60,320,30,320L0,320Z"></path></svg>